<svg width="359" height="418" viewBox="0 0 359 418" fill="none" xmlns="http://www.w3.org/2000/svg">
<path d="M119.429 0.000138048C135.266 0.000138236 150.455 6.29144 161.653 17.49C172.852 28.6886 179.143 43.8772 179.143 59.7144C179.143 75.5516 172.852 90.7402 161.653 101.939C150.455 113.137 135.266 119.429 119.429 119.429L119.429 0.000138048Z" fill="#236DF6"/>
<path d="M6.86646e-05 59.7143C6.86646e-05 51.8725 1.54462 44.1075 4.54555 36.8626C7.54647 29.6177 11.945 23.0349 17.49 17.4899C23.035 11.9449 29.6178 7.5464 36.8627 4.54548C44.1076 1.54456 51.8726 -3.42776e-07 59.7144 0L59.7144 59.7143H6.86646e-05Z" fill="#FF6641"/>
<path d="M6.86646e-05 238.857C6.86646e-05 246.699 1.54462 254.464 4.54555 261.709C7.54647 268.954 11.945 275.537 17.49 281.082C23.035 286.627 29.6178 291.025 36.8627 294.026C44.1076 297.027 51.8726 298.572 59.7144 298.572L59.7144 238.857H6.86646e-05Z" fill="#236DF6"/>
<path d="M179.143 238.857C179.143 246.699 177.598 254.464 174.598 261.709C171.597 268.954 167.198 275.537 161.653 281.082C156.108 286.627 149.525 291.025 142.28 294.026C135.036 297.027 127.271 298.572 119.429 298.572L119.429 238.857H179.143Z" fill="#236DF6"/>
<path d="M238.857 238.857C238.857 246.699 237.313 254.464 234.312 261.709C231.311 268.954 226.912 275.537 221.367 281.082C215.822 286.627 209.24 291.025 201.995 294.026C194.75 297.027 186.985 298.572 179.143 298.572L179.143 238.857H238.857Z" fill="#236DF6"/>
<path d="M59.7144 59.7143C59.7144 51.8725 61.259 44.1075 64.2599 36.8626C67.2608 29.6177 71.6593 23.0349 77.2043 17.4899C82.7493 11.9449 89.3322 7.5464 96.577 4.54548C103.822 1.54456 111.587 -3.42776e-07 119.429 0L119.429 59.7143H59.7144Z" fill="#FF6641"/>
<circle cx="29.8571" cy="89.5715" r="29.8571" fill="#211814"/>
<path d="M6.86646e-05 119.429C6.86646e-05 127.271 1.54462 135.036 4.54555 142.28C7.54647 149.525 11.945 156.108 17.49 161.653C23.035 167.198 29.6178 171.597 36.8627 174.598C44.1076 177.599 51.8726 179.143 59.7144 179.143L59.7144 119.429H6.86646e-05Z" fill="#FED132"/>
<path d="M59.7144 119.429C59.7144 127.271 61.259 135.036 64.2599 142.28C67.2608 149.525 71.6593 156.108 77.2043 161.653C82.7493 167.198 89.3322 171.597 96.577 174.598C103.822 177.599 111.587 179.143 119.429 179.143L119.429 119.429H59.7144Z" fill="#FED132"/>
<path d="M59.7144 59.7144C59.7144 67.5562 61.259 75.3212 64.2599 82.5661C67.2608 89.811 71.6593 96.3938 77.2043 101.939C82.7493 107.484 89.3322 111.882 96.577 114.883C103.822 117.884 111.587 119.429 119.429 119.429L119.429 59.7144H59.7144Z" fill="#FED132"/>
<path d="M179.143 119.429C179.143 127.271 177.598 135.036 174.598 142.28C171.597 149.525 167.198 156.108 161.653 161.653C156.108 167.198 149.525 171.597 142.28 174.598C135.036 177.599 127.271 179.143 119.429 179.143L119.429 119.429H179.143Z" fill="#236DF6"/>
<path d="M119.429 358.286C119.429 366.128 120.973 373.893 123.974 381.137C126.975 388.382 131.374 394.965 136.919 400.51C142.464 406.055 149.047 410.454 156.291 413.455C163.536 416.455 171.301 418 179.143 418L179.143 358.286H119.429Z" fill="#236DF6"/>
<path d="M179.143 358.286C179.143 366.128 180.687 373.893 183.688 381.137C186.689 388.382 191.088 394.965 196.633 400.51C202.178 406.055 208.76 410.454 216.005 413.455C223.25 416.455 231.015 418 238.857 418L238.857 358.286H179.143Z" fill="#236DF6"/>
<path d="M179.143 119.429C194.98 119.429 210.168 113.137 221.367 101.939C232.566 90.7401 238.857 75.5515 238.857 59.7143C238.857 43.8771 232.566 28.6885 221.367 17.4899C210.168 6.29131 194.98 2.91458e-06 179.143 7.12085e-07L179.143 119.429Z" fill="#211814"/>
<path d="M238.857 179.143C238.857 171.301 237.313 163.536 234.312 156.291C231.311 149.046 226.912 142.464 221.367 136.919C215.822 131.374 209.24 126.975 201.995 123.974C194.75 120.973 186.985 119.429 179.143 119.429L179.143 179.143H238.857Z" fill="#FF6641"/>
<rect y="179.143" width="59.7143" height="59.7143" fill="#FF6641"/>
<rect x="59.7144" y="179.143" width="59.7143" height="59.7143" fill="#FF6641"/>
<circle cx="149.286" cy="209" r="29.8571" fill="#FED132"/>
<circle cx="209" cy="209" r="29.8571" fill="#FED132"/>
<circle cx="89.5715" cy="268.714" r="29.8571" fill="#FED132"/>
<path d="M0.00014398 358.286C0.000142595 342.449 6.29145 327.26 17.49 316.062C28.6886 304.863 43.8772 298.572 59.7144 298.572C75.5516 298.572 90.7402 304.863 101.939 316.062C113.137 327.26 119.429 342.449 119.429 358.286L0.00014398 358.286Z" fill="#FF6641"/>
<rect x="119.429" y="298.572" width="59.7143" height="59.7143" fill="#FED132"/>
<rect x="179.143" y="298.572" width="59.7143" height="59.7143" fill="#FED132"/>
<path d="M59.7143 418C59.7143 410.158 58.1697 402.393 55.1688 395.148C52.1679 387.903 47.7694 381.321 42.2244 375.776C36.6794 370.231 30.0965 365.832 22.8517 362.831C15.6068 359.83 7.84179 358.286 0 358.286L2.61019e-06 418H59.7143Z" fill="#FED132"/>
<path d="M119.429 418C119.429 410.158 117.884 402.393 114.883 395.148C111.882 387.903 107.484 381.321 101.939 375.776C96.3938 370.231 89.8109 365.832 82.566 362.831C75.3212 359.83 67.5561 358.286 59.7144 358.286L59.7144 418H119.429Z" fill="#FED132"/>
<path d="M239 358.286C239 366.128 240.545 373.893 243.546 381.137C246.546 388.382 250.945 394.965 256.49 400.51C262.035 406.055 268.618 410.454 275.863 413.455C283.108 416.455 290.873 418 298.714 418L298.714 358.286H239Z" fill="#FF6641"/>
<path d="M239 179.143C239 171.301 240.545 163.536 243.546 156.291C246.546 149.046 250.945 142.463 256.49 136.918C262.035 131.373 268.618 126.975 275.863 123.974C283.108 120.973 290.873 119.428 298.714 119.428L298.714 179.143H239Z" fill="#236DF6"/>
<path d="M298.714 358.286C298.714 366.128 300.259 373.893 303.26 381.137C306.261 388.382 310.659 394.965 316.204 400.51C321.749 406.055 328.332 410.454 335.577 413.455C342.822 416.455 350.587 418 358.429 418L358.429 358.286H298.714Z" fill="#FF6641"/>
<circle r="29.8571" transform="matrix(1 0 0 -1 268.857 328.429)" fill="#211814"/>
<path d="M239 298.571C239 290.729 240.545 282.964 243.546 275.72C246.546 268.475 250.945 261.892 256.49 256.347C262.035 250.802 268.618 246.403 275.863 243.402C283.108 240.401 290.873 238.857 298.714 238.857L298.714 298.571H239Z" fill="#FED132"/>
<path d="M298.714 298.571C298.714 290.729 300.259 282.964 303.26 275.72C306.261 268.475 310.659 261.892 316.204 256.347C321.749 250.802 328.332 246.403 335.577 243.402C342.822 240.401 350.587 238.857 358.429 238.857L358.429 298.571H298.714Z" fill="#FED132"/>
<path d="M298.714 358.286C298.714 350.444 300.259 342.679 303.26 335.434C306.261 328.189 310.659 321.606 316.204 316.061C321.749 310.516 328.332 306.118 335.577 303.117C342.822 300.116 350.587 298.571 358.429 298.571L358.429 358.286H298.714Z" fill="#FED132"/>
<rect width="59.7143" height="59.7143" transform="matrix(1 0 0 -1 239 238.857)" fill="#FF6641"/>
<rect width="59.7143" height="59.7143" transform="matrix(1 0 0 -1 298.714 238.857)" fill="#FF6641"/>
<circle r="29.8571" transform="matrix(1 0 0 -1 328.571 149.286)" fill="#FED132"/>
<path d="M239 59.7139C239 75.5511 245.291 90.7397 256.49 101.938C267.689 113.137 282.877 119.428 298.714 119.428C314.552 119.428 329.74 113.137 340.939 101.938C352.137 90.7397 358.429 75.5512 358.429 59.714L239 59.7139Z" fill="#FF6641"/>
<path d="M298.714 6.86646e-05C298.714 7.84186 297.17 15.6069 294.169 22.8517C291.168 30.0966 286.769 36.6795 281.224 42.2244C275.679 47.7694 269.097 52.168 261.852 55.1689C254.607 58.1698 246.842 59.7144 239 59.7144L239 6.86646e-05H298.714Z" fill="#FED132"/>
<path d="M358.429 6.86646e-05C358.429 7.84186 356.884 15.6069 353.883 22.8517C350.882 30.0966 346.484 36.6795 340.939 42.2244C335.394 47.7694 328.811 52.168 321.566 55.1689C314.321 58.1698 306.556 59.7144 298.714 59.7144L298.714 6.86646e-05H358.429Z" fill="#FED132"/>
</svg>
